name analog
datacolumns 19
datarows 33
range 0.5595000000000003 0.5755000000000003
endheader
time	ground_force_vx	ground_force_vy	ground_force_vz	ground_force_px	ground_force_py	ground_force_pz	l_ground_force_vx	l_ground_force_vy	l_ground_force_vz	l_ground_force_px	l_ground_force_py	l_ground_force_pz	ground_torque_x	ground_torque_y	ground_torque_z	l_ground_torque_x	l_ground_torque_y	l_ground_torque_z
0.5595000000000003	-0.0	-0.0	-0.0	-3.099007606506348	-5.789248943328857	-806.7387084960938	-0.0	-0.0	-0.0	-0.0	-0.0	-0.0	-0.0	-0.0	-0.0	-0.0	-0.0	-0.0
0.5600000000000003	-0.0	-0.0	-0.0	-3.502521514892578	-5.173595905303955	-804.8970947265625	-0.0	-0.0	-0.0	-0.0	-0.0	-0.0	-0.0	-0.0	-0.0	-0.0	-0.0	-0.0
0.5605000000000002	-0.0	-0.0	-0.0	-3.5182249546051025	-4.723911285400391	-802.8847045898438	-0.0	-0.0	-0.0	-0.0	-0.0	-0.0	-0.0	-0.0	-0.0	-0.0	-0.0	-0.0
0.5610000000000003	-0.0	-0.0	-0.0	-3.76363468170166	-3.783324003219605	-801.0245971679688	-0.0	-0.0	-0.0	-0.0	-0.0	-0.0	-0.0	-0.0	-0.0	-0.0	-0.0	-0.0
0.5615000000000003	-0.0	-0.0	-0.0	-3.8562307357788086	-3.14538311958313	-798.0269165039062	-0.0	-0.0	-0.0	-0.0	-0.0	-0.0	-0.0	-0.0	-0.0	-0.0	-0.0	-0.0
0.5620000000000003	-0.0	-0.0	-0.0	-4.656869888305664	-3.0329337120056152	-795.633544921875	-0.0	-0.0	-0.0	-0.0	-0.0	-0.0	-0.0	-0.0	-0.0	-0.0	-0.0	-0.0
0.5625000000000002	-0.0	-0.0	-0.0	-4.684670448303223	-2.71735954284668	-794.1295166015625	-0.0	-0.0	-0.0	-0.0	-0.0	-0.0	-0.0	-0.0	-0.0	-0.0	-0.0	-0.0
0.5630000000000003	-0.0	-0.0	-0.0	-4.862936496734619	-2.537327766418457	-792.26513671875	-0.0	-0.0	-0.0	-0.0	-0.0	-0.0	-0.0	-0.0	-0.0	-0.0	-0.0	-0.0
0.5635000000000003	-0.0	-0.0	-0.0	-5.21963357925415	-2.516706943511963	-788.9205322265625	-0.0	-0.0	-0.0	-0.0	-0.0	-0.0	-0.0	-0.0	-0.0	-0.0	-0.0	-0.0
0.5640000000000003	-0.0	-0.0	-0.0	-5.1742095947265625	-2.117881298065185	-788.3872680664062	-0.0	-0.0	-0.0	-0.0	-0.0	-0.0	-0.0	-0.0	-0.0	-0.0	-0.0	-0.0
0.5645000000000002	-0.0	-0.0	-0.0	-6.065244197845459	-2.65136194229126	-786.7998046875	-0.0	-0.0	-0.0	-0.0	-0.0	-0.0	-0.0	-0.0	-0.0	-0.0	-0.0	-0.0
0.5650000000000003	-0.0	-0.0	-0.0	-5.910391330718994	-2.717307806015014	-786.5286254882812	-0.0	-0.0	-0.0	-0.0	-0.0	-0.0	-0.0	-0.0	-0.0	-0.0	-0.0	-0.0
0.5655000000000003	-0.0	-0.0	-0.0	-6.467520236968994	-2.763042449951172	-785.9122314453125	-0.0	-0.0	-0.0	-0.0	-0.0	-0.0	-0.0	-0.0	-0.0	-0.0	-0.0	-0.0
0.5660000000000003	-0.0	-0.0	-0.0	-6.467655658721924	-3.2978248596191406	-783.7088012695312	-0.0	-0.0	-0.0	-0.0	-0.0	-0.0	-0.0	-0.0	-0.0	-0.0	-0.0	-0.0
0.5665000000000002	-0.0	-0.0	-0.0	-6.869209289550781	-3.141792297363281	-785.1190185546875	-0.0	-0.0	-0.0	-0.0	-0.0	-0.0	-0.0	-0.0	-0.0	-0.0	-0.0	-0.0
0.5670000000000003	-0.0	-0.0	-0.0	-7.248265743255615	-3.2974720001220703	-786.092041015625	-0.0	-0.0	-0.0	-0.0	-0.0	-0.0	-0.0	-0.0	-0.0	-0.0	-0.0	-0.0
0.5675000000000003	-0.0	-0.0	-0.0	-7.427258491516113	-3.140397787094116	-786.7172241210938	-0.0	-0.0	-0.0	-0.0	-0.0	-0.0	-0.0	-0.0	-0.0	-0.0	-0.0	-0.0
0.5680000000000003	-0.0	-0.0	-0.0	-7.917657852172852	-3.2298519611358643	-785.5631103515625	-0.0	-0.0	-0.0	-0.0	-0.0	-0.0	-0.0	-0.0	-0.0	-0.0	-0.0	-0.0
0.5685000000000002	-0.0	-0.0	-0.0	-7.673314571380615	-3.832607269287109	-785.1142578125	-0.0	-0.0	-0.0	-0.0	-0.0	-0.0	-0.0	-0.0	-0.0	-0.0	-0.0	-0.0
0.5690000000000003	-0.0	-0.0	-0.0	-7.806653499603271	-3.809224605560303	-786.1785888671875	-0.0	-0.0	-0.0	-0.0	-0.0	-0.0	-0.0	-0.0	-0.0	-0.0	-0.0	-0.0
0.5695000000000003	-0.0	-0.0	-0.0	-7.854072093963623	-4.187356948852539	-785.6522827148438	-0.0	-0.0	-0.0	-0.0	-0.0	-0.0	-0.0	-0.0	-0.0	-0.0	-0.0	-0.0
0.5700000000000003	-0.0	-0.0	-0.0	-7.652389049530029	-4.143529415130615	-785.3859252929688	-0.0	-0.0	-0.0	-0.0	-0.0	-0.0	-0.0	-0.0	-0.0	-0.0	-0.0	-0.0
0.5705000000000002	-0.0	-0.0	-0.0	-7.893965721130371	-4.0759711265563965	-783.706298828125	-0.0	-0.0	-0.0	-0.0	-0.0	-0.0	-0.0	-0.0	-0.0	-0.0	-0.0	-0.0
0.5710000000000003	-0.0	-0.0	-0.0	-8.096513748168945	-4.569910049438477	-783.7167358398438	-0.0	-0.0	-0.0	-0.0	-0.0	-0.0	-0.0	-0.0	-0.0	-0.0	-0.0	-0.0
0.5715000000000003	-0.0	-0.0	-0.0	-7.779867172241211	-4.0724711418151855	-785.0218505859375	-0.0	-0.0	-0.0	-0.0	-0.0	-0.0	-0.0	-0.0	-0.0	-0.0	-0.0	-0.0
0.5720000000000003	-0.0	-0.0	-0.0	-7.7398271560668945	-4.463037967681885	-785.8253173828125	-0.0	-0.0	-0.0	-0.0	-0.0	-0.0	-0.0	-0.0	-0.0	-0.0	-0.0	-0.0
0.5725000000000002	-0.0	-0.0	-0.0	-7.183231830596924	-4.167738437652588	-785.8253173828125	-0.0	-0.0	-0.0	-0.0	-0.0	-0.0	-0.0	-0.0	-0.0	-0.0	-0.0	-0.0
0.5730000000000003	-0.0	-0.0	-0.0	-7.001084804534912	-3.828730344772339	-786.36279296875	-0.0	-0.0	-0.0	-0.0	-0.0	-0.0	-0.0	-0.0	-0.0	-0.0	-0.0	-0.0
0.5735000000000003	-0.0	-0.0	-0.0	-7.047630310058594	-3.2765841484069824	-785.4556884765625	-0.0	-0.0	-0.0	-0.0	-0.0	-0.0	-0.0	-0.0	-0.0	-0.0	-0.0	-0.0
0.5740000000000003	-0.0	-0.0	-0.0	-6.873629093170166	-2.779805421829224	-786.2274169921875	-0.0	-0.0	-0.0	-0.0	-0.0	-0.0	-0.0	-0.0	-0.0	-0.0	-0.0	-0.0
0.5745000000000002	-0.0	-0.0	-0.0	-6.648653984069824	-2.3433761596679688	-789.9163208007812	-0.0	-0.0	-0.0	-0.0	-0.0	-0.0	-0.0	-0.0	-0.0	-0.0	-0.0	-0.0
0.5750000000000003	-0.0	-0.0	-0.0	-6.827229976654053	-1.6462888717651367	-790.6244506835938	-0.0	-0.0	-0.0	-0.0	-0.0	-0.0	-0.0	-0.0	-0.0	-0.0	-0.0	-0.0
0.5755000000000003	-0.0	-0.0	-0.0	-6.181983947753906	-1.378752827644348	-789.0868530273438	-0.0	-0.0	-0.0	-0.0	-0.0	-0.0	-0.0	-0.0	-0.0	-0.0	-0.0	-0.0
